<?xml version="1.0" encoding="UTF-8"?>
<svg xmlns="http://www.w3.org/2000/svg" xmlns:xlink="http://www.w3.org/1999/xlink" width="128px" height="128px" viewBox="0 0 128 128" version="1.1">
<g id="surface300276">
<path style=" stroke:none;fill-rule:nonzero;fill:rgb(84.705882%,84.313725%,81.960784%);fill-opacity:1;" d="M 78.101562 12 L 25.898438 12 C 19.601562 12 14.601562 17.101562 14.601562 23.398438 C 14.601562 29.699219 19.699219 34.800781 25.898438 34.800781 L 69 34.800781 C 74 34.800781 78.101562 38.898438 78.101562 43.898438 L 78.101562 102.898438 C 78.101562 107.898438 74 112 69 112 L 19.101562 112 C 16.601562 112 14.601562 114 14.601562 116.5 C 14.601562 119 16.601562 121 19.101562 121 L 114.398438 121 C 116.898438 121 118.898438 119 118.898438 116.5 L 118.898438 31.800781 C 118.898438 20.898438 110 12 99.101562 12 L 78.101562 12 "/>
<path style=" stroke:none;fill-rule:nonzero;fill:rgb(76.078431%,75.686275%,73.72549%);fill-opacity:1;" d="M 118.898438 104.898438 L 78.101562 104.898438 L 78.101562 105.800781 C 78.101562 110.800781 74.101562 114.800781 69.101562 114.898438 L 118.898438 114.898438 L 118.898438 104.898438 "/>
<path style=" stroke:none;fill-rule:nonzero;fill:rgb(73.72549%,73.72549%,75.686275%);fill-opacity:1;" d="M 57.699219 34.699219 L 57.699219 43.800781 L 25.898438 43.800781 L 25.898438 34.699219 L 57.699219 34.699219 "/>
<path style=" stroke:none;fill-rule:nonzero;fill:rgb(66.27451%,66.27451%,67.843137%);fill-opacity:1;" d="M 57.699219 34.699219 L 41.800781 34.699219 L 41.800781 43.800781 L 57.699219 43.800781 L 57.699219 34.699219 "/>
<path style=" stroke:none;fill-rule:nonzero;fill:rgb(83.921569%,83.921569%,84.705882%);fill-opacity:1;" d="M 53.199219 43.800781 L 53.199219 57.398438 L 30.5 57.398438 L 30.5 43.800781 L 53.199219 43.800781 "/>
<path style=" stroke:none;fill-rule:nonzero;fill:rgb(75.294118%,75.294118%,76.078431%);fill-opacity:1;" d="M 53.199219 43.800781 L 41.800781 43.800781 L 41.800781 57.398438 L 53.199219 57.398438 L 53.199219 43.800781 "/>
<path style=" stroke:none;fill-rule:nonzero;fill:rgb(100%,100%,100%);fill-opacity:1;" d="M 30.5 43.800781 L 36.898438 43.800781 L 36.898438 57.398438 L 30.5 57.398438 Z M 32.699219 111.898438 C 27.699219 111.898438 23.601562 107.800781 23.601562 102.800781 L 23.601562 75.601562 L 60 75.601562 L 60 102.898438 C 60 107.898438 55.898438 112 50.898438 112 L 32.699219 112 L 32.699219 111.898438 "/>
<path style=" stroke:none;fill-rule:nonzero;fill:rgb(89.803922%,89.803922%,89.803922%);fill-opacity:1;" d="M 60 75.601562 L 50.101562 75.601562 L 50.101562 102.898438 C 50.101562 107.898438 46 112 41 112 L 50.898438 112 C 55.898438 112 60 107.898438 60 102.898438 L 60 75.601562 "/>
<path style=" stroke:none;fill-rule:nonzero;fill:rgb(100%,100%,100%);fill-opacity:1;" d="M 98 93.699219 C 94.101562 93.699219 91 90.601562 91 86.699219 L 91 41.300781 C 91 37.398438 94.101562 34.300781 98 34.300781 C 101.898438 34.300781 105 37.398438 105 41.300781 L 105 86.800781 C 105 90.601562 101.898438 93.699219 98 93.699219 Z M 98 93.699219 "/>
<path style=" stroke:none;fill-rule:nonzero;fill:rgb(27.058824%,29.411765%,32.941176%);fill-opacity:1;" d="M 99.199219 9 L 25.898438 9 C 18 9 11.601562 15.398438 11.601562 23.398438 C 11.601562 30.300781 16.5 36 22.898438 37.398438 L 22.898438 43.800781 C 22.898438 45.5 24.199219 46.800781 25.898438 46.800781 L 27.398438 46.800781 L 27.398438 47.601562 L 10 47.601562 C 8.300781 47.601562 7 48.898438 7 50.601562 C 7 52.300781 8.300781 53.601562 10 53.601562 L 27.398438 53.601562 L 27.398438 57.398438 C 27.398438 59.101562 28.699219 60.398438 30.398438 60.398438 L 53.101562 60.398438 C 54.800781 60.398438 56.101562 59.101562 56.101562 57.398438 L 56.101562 46.800781 L 57.601562 46.800781 C 59.300781 46.800781 60.601562 45.5 60.601562 43.800781 L 60.601562 37.699219 L 69 37.699219 C 72.398438 37.699219 75.101562 40.398438 75.101562 43.800781 L 75.101562 102.800781 C 75.101562 106.199219 72.398438 108.898438 69 108.898438 L 61.300781 108.898438 C 62.300781 107.101562 63 105 63 102.800781 L 63 75.601562 C 63 73.898438 61.699219 72.601562 60 72.601562 L 23.601562 72.601562 C 21.898438 72.601562 20.601562 73.898438 20.601562 75.601562 L 20.601562 77.101562 L 19.101562 77.101562 C 12.398438 77.101562 7 82.5 7 89.199219 C 7 95.898438 12.398438 101.300781 19.101562 101.300781 L 20.601562 101.300781 L 20.601562 102.800781 C 20.601562 105 21.199219 107.101562 22.300781 108.898438 L 19.101562 108.898438 C 14.898438 108.898438 11.601562 112.300781 11.601562 116.398438 C 11.601562 120.601562 15 123.898438 19.101562 123.898438 L 114.398438 123.898438 C 118.601562 123.898438 121.898438 120.5 121.898438 116.398438 L 121.898438 31.800781 C 122 19.199219 111.699219 9 99.199219 9 Z M 50.199219 54.398438 L 33.5 54.398438 L 33.5 46.800781 L 50.199219 46.800781 Z M 54.699219 40.800781 L 28.898438 40.800781 L 28.898438 37.699219 L 54.699219 37.699219 C 54.699219 37.699219 54.699219 40.800781 54.699219 40.800781 Z M 19.101562 95.300781 C 15.699219 95.300781 13 92.601562 13 89.199219 C 13 85.800781 15.699219 83.101562 19.101562 83.101562 L 20.601562 83.101562 L 20.601562 95.300781 Z M 26.601562 102.800781 L 26.601562 78.601562 L 57 78.601562 L 57 102.800781 C 57 106.199219 54.300781 108.898438 50.898438 108.898438 L 32.699219 108.898438 C 29.398438 108.898438 26.601562 106.199219 26.601562 102.800781 Z M 116 116.5 C 116 117.398438 115.300781 118 114.5 118 L 19.101562 118 C 18.300781 118 17.601562 117.300781 17.601562 116.5 C 17.601562 115.699219 18.300781 115 19.101562 115 L 69 115 C 75.699219 115 81.101562 109.601562 81.101562 102.898438 L 81.101562 43.898438 C 81.101562 37.199219 75.699219 31.800781 69 31.800781 L 25.898438 31.800781 C 21.300781 31.800781 17.601562 28.101562 17.601562 23.398438 C 17.601562 18.699219 21.300781 15 25.898438 15 L 99.101562 15 C 108.398438 15 115.898438 22.5 115.898438 31.800781 L 115.898438 116.5 Z M 116 116.5 "/>
</g>
</svg>
