<?xml version="1.0" encoding="utf-8"?>
<!-- Generator: Adobe Illustrator 22.0.0, SVG Export Plug-In . SVG Version: 6.00 Build 0)  -->
<svg version="1.1" id="Calque_1" xmlns="http://www.w3.org/2000/svg" xmlns:xlink="http://www.w3.org/1999/xlink" x="0px" y="0px"
	 viewBox="0 0 432 432" style="enable-background:new 0 0 432 432;" xml:space="preserve">
<style type="text/css">
	.st0{fill:#BA874D;}
	.st1{fill:#008D36;}
	.st2{fill:#BE1622;}
	.st3{fill:#F39200;}
	.st4{fill:#634E42;}
	.st5{fill:#FFFFFF;}
	.st6{fill:#9B191E;}
	.st7{fill:#E99F2E;}
	.st8{fill:#D4870C;}
	.st9{fill:#9E191F;}
	.st10{fill:#C91517;}
	.st11{fill:#BE1919;}
	.st12{fill:#E6332A;}
	.st13{fill:#005F2D;}
	.st14{fill:#008639;}
	.st15{fill:#3AAA35;}
	.st16{fill:#00983B;}
	.st17{fill:#A81A17;}
	.st18{fill:#C7D6E1;}
	.st19{fill:#2CA949;}
	.st20{fill:#68B659;}
	.st21{fill:#CE8837;}
	.st22{fill:#8FAFD3;}
	.st23{fill:#878787;}
	.st24{fill:#936037;}
	.st25{fill:#A86D3E;}
	.st26{fill:#432918;}
	.st27{fill:#F6F6F6;}
	.st28{fill:#DB0D15;}
	.st29{fill:#683C11;}
	.st30{fill:#1D71B8;}
	.st31{fill:#29235C;}
	.st32{fill:#575756;}
	.st33{fill:#00A19A;}
	.st34{fill:#EDEDED;}
	.st35{fill:#2C8AB8;}
	.st36{fill:#B2B2B2;}
	.st37{fill:#C6C6C6;}
	.st38{fill:#2FAC66;}
	.st39{fill:#999999;}
	.st40{fill:#E68787;}
	.st41{fill:#95C11F;}
	.st42{fill:#F8C3C4;}
	.st43{fill:#EA5055;}
	.st44{fill:#C69B6A;}
	.st45{fill:#C29560;}
	.st46{fill:#CBBBA0;}
	.st47{fill:#CBB0A0;}
	.st48{fill:#EF7D81;}
	.st49{fill:#DCC2A4;}
	.st50{fill:#AE7A3E;}
	.st51{fill:#006633;}
	.st52{fill:#ABD194;}
	.st53{fill:#57B144;}
	.st54{fill:#B08048;}
	.st55{fill:#FDD5A8;}
	.st56{fill:#D41A27;}
	.st57{fill:#7B6A58;}
	.st58{fill:#FBDDDE;}
	.st59{fill:#D71927;}
	.st60{fill:#AE1921;}
	.st61{fill:#C49064;}
	.st62{fill:#D71016;}
	.st63{fill:#C11717;}
	.st64{fill:#E30613;}
	.st65{fill:#D61116;}
	.st66{fill:#CB1518;}
	.st67{fill:#BB1918;}
	.st68{fill:#A1191F;}
	.st69{fill:#4D3D34;}
	.st70{fill:#C8A5CE;}
	.st71{fill:#951B81;}
	.st72{fill:#2985BB;}
	.st73{fill:#448DC0;}
	.st74{fill:#007BB4;}
	.st75{fill:#4A94D0;}
	.st76{fill:#3A8FCD;}
	.st77{fill:#258ACA;}
	.st78{fill:#739AC0;}
	.st79{fill:#B11918;}
	.st80{fill:#E6C6A4;}
	.st81{fill:#F1E0CE;}
	.st82{fill:#42352C;}
	.st83{fill:#A08A7E;}
	.st84{fill:#B9B8B9;}
	.st85{fill:#A3A2A3;}
	.st86{fill:#D9D8D9;}
	.st87{fill:#CDCBCC;}
	.st88{fill:#80A1C5;}
	.st89{fill:#6391BA;}
</style>
<g>
	<path class="st79" d="M292.7,192.3c0,0-25.8-40.5-92.6-40.5s-92.6,40.5-92.6,40.5C205.8,247.6,290.9,191.6,292.7,192.3z"/>
	<path class="st26" d="M284.7,196.1c-12.1-12-38.6-31.1-84.6-31.1c-46.3,0-72.9,19.5-84.8,31.4C193.4,236.1,261.9,207.2,284.7,196.1
		z"/>
	<g>
		<g>
			<path class="st80" d="M147.7,133.4c0,0,1.5-20.1,31.4-39.2c9.9-6.3,15.3-17.8,13.8-29.4v0c44.9,9.1,50.6,59.8,28.5,64.6
				C201.6,133.6,157.1,135.9,147.7,133.4z"/>
			<path class="st81" d="M137.5,172.6c0,0-20.4-31,16.7-47.4c26.4-6.9,42.1-6.3,57.6-10.3s46.5,1.1,38.2,33.6
				S137.5,172.6,137.5,172.6z"/>
			<path class="st80" d="M137.9,194.1c0,0-22.5-6.8-8-22.4c32.8-35.2,57.6-21.4,88-27.8c21.1-4.4,27.8-6.9,35.4-0.6
				c7.5,6.3,19.9,28.2,6.1,33.2C245.6,181.5,159.2,197.4,137.9,194.1z"/>
			<path class="st81" d="M139.9,217.7c-25.6-3.5-21.1-20.8,0.6-30.8c36.8-17,84.7-8,123.1-19.7c10.9-3.3,19.6,39.9,10,47.2
				C255.1,228.7,205,226.7,139.9,217.7z"/>
		</g>
		<g>
			<path class="st2" d="M312.2,83.1c-8.9-8.3-21.6-7.2-31.7-2.1c-14.4,7.3-25.2,21.6-33.6,34.9c-9.4,14.9-16.9,31.2-23.1,47.8
				c3.2,1.9,6.6,3.4,10.1,4.5c3.5,1.1,7.3,1.6,11,1.8c4.5-11.7,9.6-23.2,15.7-34.2c6.4-11.5,14.1-23.8,24.8-32
				c3.3-2.5,5.9-4,8.7-4.7c2-0.5,2.9-0.2,2.9-0.1c-0.2-0.1,0.8,0.9,0.2-0.1c1.4,2.2,1,1.4,1.3,2.3c3.5,10.6,0.9,23.5-2.3,33.7
				c-4.2,13.5,17,19.3,21.1,5.8C322.4,124.1,326.8,96.8,312.2,83.1z"/>
			<g>
				<path class="st5" d="M244.9,170c0.5-1.3,1-2.6,1.5-3.9c-6.4-3.8-12.7-7.8-18.8-12c-1.3,3.2-2.6,6.5-3.8,9.7
					c3.2,1.9,6.6,3.4,10.1,4.5C237.4,169.3,241.1,169.8,244.9,170z"/>
				<path class="st5" d="M257.6,141.4c-6.1-4.1-12.2-8.3-18.1-12.7c-1.7,3.2-3.4,6.5-5,9.8c6,4.4,12.1,8.7,18.2,12.8
					C254.2,147.9,255.9,144.7,257.6,141.4z"/>
				<path class="st5" d="M249.6,111.6c5.8,4.5,11.6,8.8,17.5,13.1c2-3.1,4-6,6.3-8.9c-5.9-4.3-11.7-8.6-17.4-13.1
					C253.7,105.6,251.6,108.6,249.6,111.6z"/>
				<path class="st5" d="M321.5,102.6c-7,1.6-14.1,3.2-21.1,4.8c3.9-8.4,6.9-17.1,9.6-26c-3.1-2.3-6.6-3.6-10.2-4.1
					c-2.4,7.6-4.9,15.2-8,22.5c0.7-0.3,1.4-0.5,2.2-0.7c2-0.5,2.9-0.2,2.9-0.1c-0.2-0.1,0.8,0.9,0.2-0.1c1.4,2.2,1,1.4,1.3,2.3
					c1.8,5.5,2,11.6,1.3,17.6c7.5-1.7,14.9-3.4,22.4-5.1C322.2,109.9,322,106.2,321.5,102.6z"/>
				<path class="st5" d="M280.4,81c-2.7,1.4-5.3,3-7.8,4.8c1.8,8.2,3.6,16.4,5.4,24.5c2.3-2.4,4.6-4.6,7.2-6.6
					c0.8-0.6,1.5-1.1,2.2-1.6c-1.7-7.4-3.3-14.8-4.9-22.2C281.8,80.3,281.1,80.7,280.4,81z"/>
				<path class="st5" d="M296.1,134.9c-0.2,0.7-0.3,1.3-0.4,2c7.6,0,15.1-0.1,22.7-0.3c0.9-3.4,1.8-7.1,2.4-11
					c-7.4,0.2-14.9,0.3-22.3,0.3C297.8,129,297,132,296.1,134.9z"/>
			</g>
		</g>
	</g>
	<path class="st62" d="M286.4,223.2c3.8-18.3,6.3-30.9,6.3-30.9c-1.8-0.7-86.9,55.4-185.1,0c0,0,30.6,155.5,41.9,164.8
		c16.4,13.5,84.9,13.6,101.3,0c2.5-2.1,6-11.5,9.9-24.9c12.7-0.8,26.1-6.7,35.2-13.9C333.6,288.4,337.5,200.6,286.4,223.2z
		 M307.5,269.2c-5,29.8-26,44.8-42.6,47.8c5.9-22.5,12.2-50.6,17.4-74.5C303.1,228.3,314.2,229.5,307.5,269.2z"/>
</g>
</svg>
